{
	"patcher" : 	{
		"fileversion" : 1,
		"appversion" : 		{
			"major" : 7,
			"minor" : 1,
			"revision" : 0,
			"architecture" : "x86",
			"modernui" : 1
		}
,
		"rect" : [ 1079.0, 214.0, 799.0, 773.0 ],
		"editing_bgcolor" : [ 0.9, 0.9, 0.9, 1.0 ],
		"bglocked" : 0,
		"openinpresentation" : 0,
		"default_fontsize" : 12.0,
		"default_fontface" : 0,
		"default_fontname" : "Arial",
		"gridonopen" : 1,
		"gridsize" : [ 15.0, 15.0 ],
		"gridsnaponopen" : 1,
		"objectsnaponopen" : 1,
		"statusbarvisible" : 2,
		"toolbarvisible" : 1,
		"lefttoolbarpinned" : 0,
		"toptoolbarpinned" : 0,
		"righttoolbarpinned" : 0,
		"bottomtoolbarpinned" : 0,
		"toolbars_unpinned_last_save" : 0,
		"tallnewobj" : 0,
		"boxanimatetime" : 200,
		"enablehscroll" : 1,
		"enablevscroll" : 1,
		"devicewidth" : 0.0,
		"description" : "",
		"digest" : "",
		"tags" : "",
		"style" : "",
		"subpatcher_template" : "",
		"boxes" : [ 			{
				"box" : 				{
					"id" : "obj-8",
					"maxclass" : "newobj",
					"numinlets" : 1,
					"numoutlets" : 0,
					"patching_rect" : [ 672.0, 675.0, 37.0, 22.0 ],
					"style" : "",
					"text" : "out 3"
				}

			}
, 			{
				"box" : 				{
					"id" : "obj-7",
					"maxclass" : "newobj",
					"numinlets" : 1,
					"numoutlets" : 0,
					"patching_rect" : [ 361.0, 675.0, 37.0, 22.0 ],
					"style" : "",
					"text" : "out 2"
				}

			}
, 			{
				"box" : 				{
					"id" : "obj-6",
					"maxclass" : "newobj",
					"numinlets" : 0,
					"numoutlets" : 1,
					"outlettype" : [ "" ],
					"patching_rect" : [ 672.0, 41.0, 30.0, 22.0 ],
					"style" : "",
					"text" : "in 4"
				}

			}
, 			{
				"box" : 				{
					"id" : "obj-5",
					"maxclass" : "newobj",
					"numinlets" : 0,
					"numoutlets" : 1,
					"outlettype" : [ "" ],
					"patching_rect" : [ 464.666656, 41.0, 30.0, 22.0 ],
					"style" : "",
					"text" : "in 3"
				}

			}
, 			{
				"box" : 				{
					"id" : "obj-1",
					"maxclass" : "newobj",
					"numinlets" : 0,
					"numoutlets" : 1,
					"outlettype" : [ "" ],
					"patching_rect" : [ 50.0, 41.0, 30.0, 22.0 ],
					"style" : "",
					"text" : "in 1"
				}

			}
, 			{
				"box" : 				{
					"id" : "obj-2",
					"maxclass" : "newobj",
					"numinlets" : 0,
					"numoutlets" : 1,
					"outlettype" : [ "" ],
					"patching_rect" : [ 257.333344, 41.0, 30.0, 22.0 ],
					"style" : "",
					"text" : "in 2"
				}

			}
, 			{
				"box" : 				{
					"code" : "History previousCentroid(0.);\r\nHistory previousSpread(0.);\r\nHistory previousNoise(0.);\r\nHistory sumAmp(0.);\r\nHistory sumAmpIndex(0.);\r\nHistory sumSpread(0.);\r\nHistory sumAmpLog(0.);\r\n\r\nreal = in1;\r\nimag = in2;\r\nindex = in3;\r\non = in4;\r\n\r\nif ( in4 )\r\n{\r\n\tcentroid \t= previousCentroid;\r\n\tspread \t\t= previousSpread;\r\n\tnoise\t\t= previousNoise;\r\n\r\n\tif ( index < ( VECTORSIZE - 1 ) )\r\n\t{\r\n\t\t// get base values for current bin index\r\n\t\tamp\t\t\t= real * real + imag * imag;\r\n\t\tfreq \t\t= index * SAMPLERATE / FFTSIZE;\r\n\t\t\r\n\t\t// accumulate values\r\n\t\tsumAmp\t\t+= amp;\r\n\t\tsumAmpIndex\t+= freq * amp;\t\t\r\n\t\tsumSpread\t+= pow ( freq - previousCentroid, 2 ) * amp;\r\n\t\tsumAmpLog   += ln ( amp );\r\n\t}\r\n\telse\r\n\t{\r\n\t\t// calculate centroid values\r\n\t\tcentroid\t= sumAmpIndex / sumAmp;\r\n\t\tspread\t\t= sumSpread / sumAmp;\r\n\t\tnoise\t\t= exp ( sumAmpLog / FFTSIZE ) / ( sumAmp / FFTSIZE );\r\n\t\tnoise\t\t= log ( 30 * noise + 1. ) / 4;\r\n\t\t\r\n\t\t// reset energy sums\r\n\t\tsumAmp \t\t= 0.;\r\n\t\tsumAmpIndex = 0.;\r\n\t\tsumSpread \t= 0.;\r\n\t\tsumAmpLog \t= 0.;\r\n\t\t\r\n\t\t// final centroid value\r\n\t\tpreviousCentroid \t= centroid;\r\n\t\tpreviousSpread \t\t= spread / ( SAMPLERATE * FFTSIZE );\r\n\t\tpreviousNoise\t\t= noise;\r\n\t}\r\n\t\r\n\tout1 = centroid;\r\n\tout2 = clamp ( spread, 0., 1. );\r\n\tout3 = clamp ( noise, 0., 1. );\r\n}\r\n",
					"fontface" : 0,
					"fontname" : "Arial",
					"fontsize" : 12.0,
					"id" : "obj-3",
					"maxclass" : "codebox",
					"numinlets" : 4,
					"numoutlets" : 3,
					"outlettype" : [ "", "", "" ],
					"patching_rect" : [ 50.0, 70.0, 641.0, 594.0 ],
					"style" : ""
				}

			}
, 			{
				"box" : 				{
					"id" : "obj-4",
					"maxclass" : "newobj",
					"numinlets" : 1,
					"numoutlets" : 0,
					"patching_rect" : [ 50.0, 675.0, 37.0, 22.0 ],
					"style" : "",
					"text" : "out 1"
				}

			}
 ],
		"lines" : [ 			{
				"patchline" : 				{
					"destination" : [ "obj-3", 0 ],
					"disabled" : 0,
					"hidden" : 0,
					"source" : [ "obj-1", 0 ]
				}

			}
, 			{
				"patchline" : 				{
					"destination" : [ "obj-3", 1 ],
					"disabled" : 0,
					"hidden" : 0,
					"source" : [ "obj-2", 0 ]
				}

			}
, 			{
				"patchline" : 				{
					"destination" : [ "obj-4", 0 ],
					"disabled" : 0,
					"hidden" : 0,
					"source" : [ "obj-3", 0 ]
				}

			}
, 			{
				"patchline" : 				{
					"destination" : [ "obj-7", 0 ],
					"disabled" : 0,
					"hidden" : 0,
					"source" : [ "obj-3", 1 ]
				}

			}
, 			{
				"patchline" : 				{
					"destination" : [ "obj-8", 0 ],
					"disabled" : 0,
					"hidden" : 0,
					"source" : [ "obj-3", 2 ]
				}

			}
, 			{
				"patchline" : 				{
					"destination" : [ "obj-3", 2 ],
					"disabled" : 0,
					"hidden" : 0,
					"source" : [ "obj-5", 0 ]
				}

			}
, 			{
				"patchline" : 				{
					"destination" : [ "obj-3", 3 ],
					"disabled" : 0,
					"hidden" : 0,
					"source" : [ "obj-6", 0 ]
				}

			}
 ]
	}

}
